2.2Hz3min_grf.mot
version=1
nRows=12
nColumns 19
inDegrees=yes
endheader
time	1_ground_force_vx	1_ground_force_vy	1_ground_force_vz	1_ground_force_px	1_ground_force_py	1_ground_force_pz	1_ground_torque_x	1_ground_torque_y	1_ground_torque_z	2_ground_force_vx	2_ground_force_vy	2_ground_force_vz	2_ground_force_px	2_ground_force_py	2_ground_force_pz	2_ground_torque_x	2_ground_torque_y	2_ground_torque_z
            2.502500	            0.087569	            8.837361	           -0.971182	           -0.233013	            0.005581	           -0.255695	            0.468952	           -0.433939	           -0.093420	           -0.103731	            2.762389	           -0.130889	           -0.232311	            0.006130	           -0.833667	           -0.449844	           -0.330926	           -0.434543
            2.503000	           -0.599884	           10.278567	           -0.779868	           -0.244910	            0.005752	           -0.295897	            0.028377	           -0.486227	            0.036892	            0.362959	            3.315019	            0.293236	           -0.232311	            0.006130	           -0.833667	           -0.449752	           -0.340849	           -0.302626
            2.503500	           -0.644586	            9.015126	           -0.418318	           -0.233013	            0.005581	           -0.255695	            0.407951	           -0.508538	           -0.049678	            0.409247	            3.498500	            0.528514	           -0.232311	            0.006130	           -0.833667	           -0.412411	           -0.283796	           -0.358990
            2.504000	           -0.461214	            9.015161	           -0.418773	           -0.233013	            0.005581	           -0.255695	            0.370485	           -0.573245	           -0.023245	            0.409871	            3.314686	            0.434001	           -0.232311	            0.006130	           -0.833667	           -0.393566	           -0.302566	           -0.377916
            2.504500	           -0.278168	            9.556387	           -0.508621	           -0.233013	            0.005581	           -0.255695	            0.430335	           -0.563828	           -0.034352	            0.317398	            2.946888	            0.198086	           -0.232311	            0.006130	           -0.833667	           -0.487347	           -0.349967	           -0.434595
            2.505000	           -0.095510	            8.476401	           -0.880561	           -0.233013	            0.005581	           -0.255695	            0.502943	           -0.461985	           -0.045036	           -0.009990	            2.762392	           -0.037072	           -0.232311	            0.006130	           -0.833667	           -0.543782	           -0.312830	           -0.302485
            2.505500	            0.362267	            9.558870	           -1.060485	           -0.233013	            0.005581	           -0.255695	            0.416014	           -0.405934	           -0.119062	           -0.101799	            2.210446	           -0.273644	           -0.232311	            0.006130	           -0.833667	           -0.393240	           -0.406142	           -0.491388
            2.506000	            0.225439	            8.836798	           -0.833956	           -0.233013	            0.005581	           -0.255695	            0.369427	           -0.434212	           -0.012117	           -0.007414	            2.026468	           -0.227413	           -0.232311	            0.006130	           -0.833667	           -0.412085	           -0.387372	           -0.472462
            2.506500	           -0.507269	            9.556146	           -0.462196	           -0.233013	            0.005581	           -0.255695	            0.259402	           -0.536235	           -0.043583	           -0.198157	            2.946701	           -0.270976	           -0.232311	            0.006130	           -0.833667	           -0.543711	           -0.350103	           -0.453421
            2.507000	           -0.369917	            8.655434	           -0.603970	           -0.233013	            0.005581	           -0.255695	            0.472226	           -0.600598	           -0.094885	            0.177369	            2.763404	           -0.131008	           -0.232311	            0.006130	           -0.833667	           -0.374669	           -0.340107	           -0.434609
            2.507500	           -0.826786	            8.832859	            0.039923	           -0.233013	            0.005581	           -0.255695	            0.407142	           -0.591555	           -0.114239	            0.178239	            2.577582	            0.337616	           -0.232311	            0.006130	           -0.833667	           -0.431111	           -0.312087	           -0.396784
            2.508000	           -0.461573	            9.736617	           -0.507393	           -0.233013	            0.005581	           -0.255695	            0.448870	           -0.517531	           -0.079621	           -0.010449	            2.944867	            0.432866	           -0.232311	            0.006130	           -0.833667	           -0.318390	           -0.311748	           -0.377981
